<svg width="16" height="16" viewBox="0 0 16 16" fill="none" xmlns="http://www.w3.org/2000/svg">
<g clip-path="url(#clip0_6_2747)">
<path fill-rule="evenodd" clip-rule="evenodd" d="M11.2991 0.0502569C9.82713 -0.0184086 6.1812 -0.0150753 4.70789 0.0502569C3.41325 0.110923 2.27127 0.423584 1.35062 1.34423C-0.0262329 2.72108 -0.0135323 4.52606 0.0043624 7.06919C0.00646516 7.36803 0.00863964 7.67706 0.00863964 7.99679C0.00863964 8.29603 0.00703693 8.58522 0.00548707 8.86488C-0.0090808 11.4935 -0.0189801 13.2797 1.35062 14.6493C2.72999 16.0281 4.55486 16.0145 7.06927 15.9959C7.37053 15.9936 7.68169 15.9913 8.00317 15.9913H8.0466C11.0958 15.9913 12.1549 15.9913 13.2397 15.5713C14.7217 14.996 15.8404 13.6714 15.9497 11.2921C16.019 9.81942 16.015 6.17415 15.9497 4.70084C15.8177 1.89223 14.3104 0.188921 11.2991 0.0502569ZM8.00317 3.89153C5.73454 3.89153 3.89791 5.73017 3.89791 7.99679C3.89791 10.2654 5.73654 12.1021 8.00317 12.1021C10.2718 12.1021 12.1084 10.2634 12.1084 7.99679C12.1084 5.72817 10.2698 3.89153 8.00317 3.89153ZM8.00317 10.6614C6.53053 10.6614 5.33855 9.46877 5.33855 7.99679C5.33855 6.52482 6.5312 5.33217 8.00317 5.33217C9.47514 5.33217 10.6678 6.52482 10.6678 7.99679C10.6685 9.46877 9.47581 10.6614 8.00317 10.6614ZM13.2304 3.72953C13.2304 4.25935 12.8009 4.68885 12.2711 4.68885C11.7413 4.68885 11.3118 4.25935 11.3118 3.72953C11.3118 3.19972 11.7413 2.77021 12.2711 2.77021C12.8009 2.77021 13.2304 3.19972 13.2304 3.72953Z" fill="#C9A785"/>
</g>
<defs>
<clipPath id="clip0_6_2747">
<rect width="15.9997" height="16" fill="white" transform="translate(0.000488281)"/>
</clipPath>
</defs>
</svg>
