<svg width="250" height="49" viewBox="0 0 250 49" fill="none" xmlns="http://www.w3.org/2000/svg">
<path d="M29.48 39L29.44 20.44L20.24 35.8H17.92L8.72 20.68V39H3.76V11H8.04L19.16 29.56L30.08 11H34.36L34.4 39H29.48ZM61.4831 17.64L51.4831 40.72C50.5498 43.04 49.4165 44.6667 48.0831 45.6C46.7498 46.56 45.1365 47.04 43.2431 47.04C42.1765 47.04 41.1231 46.8667 40.0831 46.52C39.0431 46.1733 38.1898 45.6933 37.5231 45.08L39.5231 41.4C40.0031 41.8533 40.5631 42.2133 41.2031 42.48C41.8698 42.7467 42.5365 42.88 43.2031 42.88C44.0831 42.88 44.8031 42.6533 45.3631 42.2C45.9498 41.7467 46.4831 40.9867 46.9631 39.92L47.3231 39.08L38.0031 17.64H43.2031L49.9231 33.44L56.6831 17.64H61.4831ZM87.5028 17.4C89.5828 17.4 91.4361 17.8533 93.0628 18.76C94.7161 19.6667 96.0095 20.9467 96.9428 22.6C97.8761 24.2533 98.3428 26.16 98.3428 28.32C98.3428 30.48 97.8761 32.4 96.9428 34.08C96.0095 35.7333 94.7161 37.0133 93.0628 37.92C91.4361 38.8267 89.5828 39.28 87.5028 39.28C84.6228 39.28 82.3428 38.32 80.6628 36.4V46.76H75.6628V17.64H80.4228V20.44C81.2495 19.4267 82.2628 18.6667 83.4628 18.16C84.6895 17.6533 86.0361 17.4 87.5028 17.4ZM86.9428 35C88.7828 35 90.2895 34.3867 91.4628 33.16C92.6628 31.9333 93.2628 30.32 93.2628 28.32C93.2628 26.32 92.6628 24.7067 91.4628 23.48C90.2895 22.2533 88.7828 21.64 86.9428 21.64C85.7428 21.64 84.6628 21.92 83.7028 22.48C82.7428 23.0133 81.9828 23.7867 81.4228 24.8C80.8628 25.8133 80.5828 26.9867 80.5828 28.32C80.5828 29.6533 80.8628 30.8267 81.4228 31.84C81.9828 32.8533 82.7428 33.64 83.7028 34.2C84.6628 34.7333 85.7428 35 86.9428 35ZM112.685 39.28C110.525 39.28 108.578 38.8133 106.845 37.88C105.111 36.9467 103.751 35.6533 102.765 34C101.805 32.32 101.325 30.4267 101.325 28.32C101.325 26.2133 101.805 24.3333 102.765 22.68C103.751 21.0267 105.111 19.7333 106.845 18.8C108.578 17.8667 110.525 17.4 112.685 17.4C114.871 17.4 116.831 17.8667 118.565 18.8C120.298 19.7333 121.645 21.0267 122.605 22.68C123.591 24.3333 124.085 26.2133 124.085 28.32C124.085 30.4267 123.591 32.32 122.605 34C121.645 35.6533 120.298 36.9467 118.565 37.88C116.831 38.8133 114.871 39.28 112.685 39.28ZM112.685 35C114.525 35 116.045 34.3867 117.245 33.16C118.445 31.9333 119.045 30.32 119.045 28.32C119.045 26.32 118.445 24.7067 117.245 23.48C116.045 22.2533 114.525 21.64 112.685 21.64C110.845 21.64 109.325 22.2533 108.125 23.48C106.951 24.7067 106.365 26.32 106.365 28.32C106.365 30.32 106.951 31.9333 108.125 33.16C109.325 34.3867 110.845 35 112.685 35ZM133.626 20.76C135.066 18.52 137.599 17.4 141.226 17.4V22.16C140.799 22.08 140.413 22.04 140.066 22.04C138.119 22.04 136.599 22.6133 135.506 23.76C134.413 24.88 133.866 26.5067 133.866 28.64V39H128.866V17.64H133.626V20.76ZM159.089 37.84C158.502 38.32 157.782 38.68 156.929 38.92C156.102 39.16 155.222 39.28 154.289 39.28C151.942 39.28 150.129 38.6667 148.849 37.44C147.569 36.2133 146.929 34.4267 146.929 32.08V21.8H143.409V17.8H146.929V12.92H151.929V17.8H157.649V21.8H151.929V31.96C151.929 33 152.182 33.8 152.689 34.36C153.195 34.8933 153.929 35.16 154.889 35.16C156.009 35.16 156.942 34.8667 157.689 34.28L159.089 37.84ZM171.882 13.08C169.775 13.08 168.722 14.2267 168.722 16.52V17.8H174.602V21.8H168.882V39H163.882V21.8H160.362V17.8H163.882V16.44C163.882 14.1467 164.549 12.3467 165.882 11.04C167.215 9.70667 169.095 9.04 171.522 9.04C173.442 9.04 174.949 9.42667 176.042 10.2L174.642 13.96C173.789 13.3733 172.869 13.08 171.882 13.08ZM187.255 39.28C185.095 39.28 183.148 38.8133 181.415 37.88C179.682 36.9467 178.322 35.6533 177.335 34C176.375 32.32 175.895 30.4267 175.895 28.32C175.895 26.2133 176.375 24.3333 177.335 22.68C178.322 21.0267 179.682 19.7333 181.415 18.8C183.148 17.8667 185.095 17.4 187.255 17.4C189.442 17.4 191.402 17.8667 193.135 18.8C194.868 19.7333 196.215 21.0267 197.175 22.68C198.162 24.3333 198.655 26.2133 198.655 28.32C198.655 30.4267 198.162 32.32 197.175 34C196.215 35.6533 194.868 36.9467 193.135 37.88C191.402 38.8133 189.442 39.28 187.255 39.28ZM187.255 35C189.095 35 190.615 34.3867 191.815 33.16C193.015 31.9333 193.615 30.32 193.615 28.32C193.615 26.32 193.015 24.7067 191.815 23.48C190.615 22.2533 189.095 21.64 187.255 21.64C185.415 21.64 183.895 22.2533 182.695 23.48C181.522 24.7067 180.935 26.32 180.935 28.32C180.935 30.32 181.522 31.9333 182.695 33.16C183.895 34.3867 185.415 35 187.255 35ZM203.436 9.32H208.436V39H203.436V9.32ZM214.999 17.64H219.999V39H214.999V17.64ZM217.519 14.12C216.612 14.12 215.852 13.84 215.239 13.28C214.625 12.6933 214.319 11.9733 214.319 11.12C214.319 10.2667 214.625 9.56 215.239 9C215.852 8.41333 216.612 8.12 217.519 8.12C218.425 8.12 219.185 8.4 219.799 8.96C220.412 9.49333 220.719 10.1733 220.719 11C220.719 11.88 220.412 12.6267 219.799 13.24C219.212 13.8267 218.452 14.12 217.519 14.12ZM236.161 39.28C234.001 39.28 232.055 38.8133 230.321 37.88C228.588 36.9467 227.228 35.6533 226.241 34C225.281 32.32 224.801 30.4267 224.801 28.32C224.801 26.2133 225.281 24.3333 226.241 22.68C227.228 21.0267 228.588 19.7333 230.321 18.8C232.055 17.8667 234.001 17.4 236.161 17.4C238.348 17.4 240.308 17.8667 242.041 18.8C243.775 19.7333 245.121 21.0267 246.081 22.68C247.068 24.3333 247.561 26.2133 247.561 28.32C247.561 30.4267 247.068 32.32 246.081 34C245.121 35.6533 243.775 36.9467 242.041 37.88C240.308 38.8133 238.348 39.28 236.161 39.28ZM236.161 35C238.001 35 239.521 34.3867 240.721 33.16C241.921 31.9333 242.521 30.32 242.521 28.32C242.521 26.32 241.921 24.7067 240.721 23.48C239.521 22.2533 238.001 21.64 236.161 21.64C234.321 21.64 232.801 22.2533 231.601 23.48C230.428 24.7067 229.841 26.32 229.841 28.32C229.841 30.32 230.428 31.9333 231.601 33.16C232.801 34.3867 234.321 35 236.161 35Z" fill="black"/>
</svg>
