<svg width="16" height="16" viewBox="0 0 16 16" fill="none" xmlns="http://www.w3.org/2000/svg">
<path d="M13.2771 8.68438C13.0185 8.35818 13.0925 8.21306 13.2771 7.92147C13.2805 7.91814 15.4159 4.97169 15.6359 3.97246L15.6372 3.97179C15.7465 3.60764 15.6372 3.34003 15.1085 3.34003H13.3591C12.9138 3.34003 12.7084 3.5697 12.5984 3.82666C12.5984 3.82666 11.7077 5.95562 10.4477 7.33564C10.041 7.73441 9.85301 7.86222 9.631 7.86222C9.52166 7.86222 9.35166 7.73441 9.35166 7.37026V3.97179C9.35166 3.53508 9.22698 3.34003 8.85831 3.34003H6.10754C5.8282 3.34003 5.6622 3.54374 5.6622 3.73346C5.6622 4.14754 6.29222 4.24274 6.35755 5.40774V7.93545C6.35755 8.48933 6.25688 8.59118 6.03354 8.59118C5.43886 8.59118 3.99547 6.45357 3.14011 4.00707C2.96744 3.53242 2.79876 3.34069 2.35008 3.34069H0.600021C0.10067 3.34069 0 3.57036 0 3.82733C0 4.28135 0.594687 6.53878 2.76543 9.52118C4.21215 11.5569 6.24955 12.66 8.10295 12.66C9.21699 12.66 9.35299 12.415 9.35299 11.9936C9.35299 10.0484 9.25232 9.86469 9.81034 9.86469C10.069 9.86469 10.5144 9.99251 11.5544 10.9744C12.7431 12.1388 12.9384 12.66 13.6038 12.66H15.3532C15.8519 12.66 16.1046 12.415 15.9592 11.9317C15.6265 10.9152 13.3785 8.82418 13.2771 8.68438Z" fill="#C9A785"/>
</svg>
