<svg width="178" height="110" viewBox="0 0 178 110" fill="none" xmlns="http://www.w3.org/2000/svg">
<path d="M8 4C8 6.20914 6.20914 8 4 8C1.79086 8 0 6.20914 0 4C0 1.79086 1.79086 0 4 0C6.20914 0 8 1.79086 8 4Z" fill="#C9A785"/>
<path d="M8 38C8 40.2091 6.20914 42 4 42C1.79086 42 0 40.2091 0 38C0 35.7909 1.79086 34 4 34C6.20914 34 8 35.7909 8 38Z" fill="#C9A785"/>
<path d="M8 72C8 74.2091 6.20914 76 4 76C1.79086 76 0 74.2091 0 72C0 69.7909 1.79086 68 4 68C6.20914 68 8 69.7909 8 72Z" fill="#C9A785"/>
<path d="M8 106C8 108.209 6.20914 110 4 110C1.79086 110 0 108.209 0 106C0 103.791 1.79086 102 4 102C6.20914 102 8 103.791 8 106Z" fill="#C9A785"/>
<path d="M42 4C42 6.20914 40.2091 8 38 8C35.7909 8 34 6.20914 34 4C34 1.79086 35.7909 0 38 0C40.2091 0 42 1.79086 42 4Z" fill="#C9A785"/>
<path d="M42 38C42 40.2091 40.2091 42 38 42C35.7909 42 34 40.2091 34 38C34 35.7909 35.7909 34 38 34C40.2091 34 42 35.7909 42 38Z" fill="#C9A785"/>
<path d="M42 72C42 74.2091 40.2091 76 38 76C35.7909 76 34 74.2091 34 72C34 69.7909 35.7909 68 38 68C40.2091 68 42 69.7909 42 72Z" fill="#C9A785"/>
<path d="M42 106C42 108.209 40.2091 110 38 110C35.7909 110 34 108.209 34 106C34 103.791 35.7909 102 38 102C40.2091 102 42 103.791 42 106Z" fill="#C9A785"/>
<path d="M76 4C76 6.20914 74.2091 8 72 8C69.7909 8 68 6.20914 68 4C68 1.79086 69.7909 0 72 0C74.2091 0 76 1.79086 76 4Z" fill="#C9A785"/>
<path d="M76 38C76 40.2091 74.2091 42 72 42C69.7909 42 68 40.2091 68 38C68 35.7909 69.7909 34 72 34C74.2091 34 76 35.7909 76 38Z" fill="#C9A785"/>
<path d="M76 72C76 74.2091 74.2091 76 72 76C69.7909 76 68 74.2091 68 72C68 69.7909 69.7909 68 72 68C74.2091 68 76 69.7909 76 72Z" fill="#C9A785"/>
<path d="M76 106C76 108.209 74.2091 110 72 110C69.7909 110 68 108.209 68 106C68 103.791 69.7909 102 72 102C74.2091 102 76 103.791 76 106Z" fill="#C9A785"/>
<path d="M110 4C110 6.20914 108.209 8 106 8C103.791 8 102 6.20914 102 4C102 1.79086 103.791 0 106 0C108.209 0 110 1.79086 110 4Z" fill="#C9A785"/>
<path d="M110 38C110 40.2091 108.209 42 106 42C103.791 42 102 40.2091 102 38C102 35.7909 103.791 34 106 34C108.209 34 110 35.7909 110 38Z" fill="#C9A785"/>
<path d="M110 72C110 74.2091 108.209 76 106 76C103.791 76 102 74.2091 102 72C102 69.7909 103.791 68 106 68C108.209 68 110 69.7909 110 72Z" fill="#C9A785"/>
<path d="M110 106C110 108.209 108.209 110 106 110C103.791 110 102 108.209 102 106C102 103.791 103.791 102 106 102C108.209 102 110 103.791 110 106Z" fill="#C9A785"/>
<path d="M144 4C144 6.20914 142.209 8 140 8C137.791 8 136 6.20914 136 4C136 1.79086 137.791 0 140 0C142.209 0 144 1.79086 144 4Z" fill="#C9A785"/>
<path d="M144 38C144 40.2091 142.209 42 140 42C137.791 42 136 40.2091 136 38C136 35.7909 137.791 34 140 34C142.209 34 144 35.7909 144 38Z" fill="#C9A785"/>
<path d="M144 72C144 74.2091 142.209 76 140 76C137.791 76 136 74.2091 136 72C136 69.7909 137.791 68 140 68C142.209 68 144 69.7909 144 72Z" fill="#C9A785"/>
<path d="M144 106C144 108.209 142.209 110 140 110C137.791 110 136 108.209 136 106C136 103.791 137.791 102 140 102C142.209 102 144 103.791 144 106Z" fill="#C9A785"/>
<path d="M178 4C178 6.20914 176.209 8 174 8C171.791 8 170 6.20914 170 4C170 1.79086 171.791 0 174 0C176.209 0 178 1.79086 178 4Z" fill="#C9A785"/>
<path d="M178 38C178 40.2091 176.209 42 174 42C171.791 42 170 40.2091 170 38C170 35.7909 171.791 34 174 34C176.209 34 178 35.7909 178 38Z" fill="#C9A785"/>
<path d="M178 72C178 74.2091 176.209 76 174 76C171.791 76 170 74.2091 170 72C170 69.7909 171.791 68 174 68C176.209 68 178 69.7909 178 72Z" fill="#C9A785"/>
<path d="M178 106C178 108.209 176.209 110 174 110C171.791 110 170 108.209 170 106C170 103.791 171.791 102 174 102C176.209 102 178 103.791 178 106Z" fill="#C9A785"/>
</svg>
